<svg width="20" height="20" viewBox="0 0 20 20" fill="none" xmlns="http://www.w3.org/2000/svg">
<path d="M6.875 13.125L3.75 16.25" stroke="white" stroke-width="1.5" stroke-linecap="round" stroke-linejoin="round"/>
<path d="M3.75 3.125L16.25 16.875" stroke="white" stroke-width="1.5" stroke-linecap="round" stroke-linejoin="round"/>
<path d="M7.32032 7.05469L7.18751 7.1875C7.18751 7.1875 5.02345 6.10156 2.70314 7.97656C2.63486 8.03182 2.579 8.10084 2.53919 8.17913C2.49938 8.25742 2.47651 8.34322 2.47209 8.43094C2.46767 8.51866 2.48178 8.60633 2.51352 8.68823C2.54525 8.77012 2.59389 8.84441 2.65626 8.90625L11.0781 17.3281C11.1412 17.3923 11.2173 17.4421 11.3014 17.4741C11.3854 17.5061 11.4754 17.5196 11.5651 17.5137C11.6549 17.5077 11.7423 17.4825 11.8214 17.4397C11.9005 17.3969 11.9694 17.3375 12.0234 17.2656C12.6172 16.4766 13.5156 14.9297 13.0156 13.3203" stroke="white" stroke-width="1.5" stroke-linecap="round" stroke-linejoin="round"/>
<path d="M14.4453 11.1797L17.6797 7.9453C17.7387 7.88715 17.7856 7.81783 17.8176 7.74138C17.8497 7.66493 17.8661 7.58287 17.8661 7.49999C17.8661 7.41711 17.8497 7.33506 17.8176 7.25861C17.7856 7.18216 17.7387 7.11284 17.6797 7.05468L12.9453 2.32031C12.8872 2.26125 12.8178 2.21436 12.7414 2.18235C12.6649 2.15033 12.5829 2.13385 12.5 2.13385C12.4171 2.13385 12.3351 2.15033 12.2586 2.18235C12.1822 2.21436 12.1128 2.26125 12.0547 2.32031L9.09375 5.28124" stroke="white" stroke-width="1.5" stroke-linecap="round" stroke-linejoin="round"/>
</svg>
