<svg width="20" height="20" viewBox="0 0 20 20" fill="none" xmlns="http://www.w3.org/2000/svg">
<path d="M6.875 13.125L3.75 16.25" stroke="black" stroke-width="1.5" stroke-linecap="round" stroke-linejoin="round"/>
<path d="M12.0547 2.32031L7.1875 7.18749C7.1875 7.18749 5.02343 6.10155 2.70312 7.97655C2.63485 8.03181 2.57898 8.10083 2.53917 8.17912C2.49936 8.25741 2.4765 8.34321 2.47208 8.43093C2.46765 8.51865 2.48177 8.60632 2.5135 8.68822C2.54524 8.77011 2.59387 8.8444 2.65625 8.90624L11.0781 17.3281C11.1412 17.3923 11.2173 17.442 11.3014 17.4741C11.3854 17.5061 11.4754 17.5196 11.5651 17.5137C11.6549 17.5077 11.7423 17.4825 11.8214 17.4397C11.9005 17.3969 11.9694 17.3375 12.0234 17.2656C12.6797 16.3984 13.7109 14.6016 12.8125 12.8125L17.6797 7.9453C17.7387 7.88715 17.7856 7.81783 17.8176 7.74138C17.8497 7.66493 17.8661 7.58287 17.8661 7.49999C17.8661 7.41711 17.8497 7.33506 17.8176 7.25861C17.7856 7.18216 17.7387 7.11284 17.6797 7.05468L12.9453 2.32031C12.8872 2.26125 12.8178 2.21436 12.7414 2.18235C12.6649 2.15033 12.5829 2.13385 12.5 2.13385C12.4171 2.13385 12.3351 2.15033 12.2586 2.18235C12.1822 2.21436 12.1128 2.26125 12.0547 2.32031Z" stroke="black" stroke-width="1.5" stroke-linecap="round" stroke-linejoin="round"/>
</svg>
